<svg width="36" height="26" viewBox="0 0 36 26" fill="none" xmlns="http://www.w3.org/2000/svg">
<path d="M5.67009 22.496C4.90342 22.496 4.26342 22.2388 3.75009 21.7243C3.23565 21.211 2.97842 20.5705 2.97842 19.8027V3.51935C2.97842 2.75268 3.23565 2.11268 3.75009 1.59935C4.26454 1.08601 4.90453 0.829346 5.67009 0.829346H30.2868C31.0534 0.829346 31.6934 1.08601 32.2068 1.59935C32.7212 2.11379 32.9784 2.75435 32.9784 3.52101V19.8043C32.9784 20.571 32.7218 21.211 32.2084 21.7243C31.6951 22.2377 31.0545 22.4949 30.2868 22.496H5.67009ZM0.926758 25.8293V24.1627H35.0301V25.8293H0.926758Z" fill="black"/>
</svg>
